<svg xmlns="http://www.w3.org/2000/svg" width="1000" height="911.81" viewBox="-194 -59.907 1000 911.81"><defs/><path d="M671.21 700.7h-8.949v24.658h-5.688V700.7h-8.988v-4.655h23.625v4.655zm22.273 16.147l7.954-20.802h8.193v29.313h-5.37V702.45l-8.75 22.908h-3.978l-8.789-22.908v22.908h-5.329v-29.313h8.232l7.837 20.802zM-89.876 756.94h788.65v5.847h-788.65zM-38.695 824.67l-5.596-13.623-5.595 13.623h11.191zm-9.743-24.741h8.523l18.011 42.32h-9.648l-3.828-9.419h-17.785l-3.859 9.419h-9.423l18.009-42.32zM1.96 800.25h10.183l10.99 29.59 10.987-29.59h9.96l-16.998 42.32h-8.159zM50.322 810.08h9.107v32.176h-9.107zM50.085 798.42h9.585v7.955h-9.585zM88.578 831v-1.608c-1.58-.739-3.614-1.226-5.837-1.226-3.936 0-6.356 1.578-6.356 4.447v.127c0 2.48 2.065 3.927 5.033 3.927 4.257 0 7.16-2.348 7.16-5.667m-21.028 2.126v-.13c0-7.051 5.354-10.3 12.996-10.3 3.29 0 5.613.547 7.902 1.352v-.548c0-3.8-2.354-5.924-6.934-5.924-3.485 0-5.936.675-8.902 1.769l-2.29-6.952c3.578-1.614 7.031-2.609 12.513-2.609 5.033 0 8.612 1.319 10.936 3.604 2.42 2.416 3.483 5.957 3.483 10.305v18.677h-8.869v-3.479c-2.226 2.482-5.29 4.091-9.741 4.091-6.096-.004-11.094-3.514-11.094-9.856M104.97 826.38v-.127c0-9.153 7.023-16.678 16.787-16.678 6.002 0 9.768 2.019 12.733 5.414l-5.552 5.952c-2.012-2.146-4.056-3.521-7.244-3.521-4.564 0-7.755 4.032-7.755 8.735v.098c0 4.93 3.126 8.866 8.104 8.866 3.033 0 5.14-1.312 7.308-3.425l5.331 5.408c-3.095 3.425-6.702 5.828-13.055 5.828-9.604-.002-16.657-7.397-16.657-16.55M165.68 826.38v-.127c0-4.707-3.405-8.835-8.482-8.835-5.207 0-8.323 4.03-8.323 8.737v.098c0 4.736 3.441 8.867 8.451 8.867 5.236-.003 8.354-4.005 8.354-8.74m-25.804 0v-.127c0-9.221 7.422-16.68 17.448-16.68 9.993 0 17.354 7.365 17.354 16.582v.098c0 9.217-7.425 16.676-17.482 16.676-9.962 0-17.32-7.331-17.32-16.549M182.65 810.04h9.131v4.587c2.089-2.712 4.853-5.168 9.481-5.168 4.212 0 7.393 1.842 9.065 5.103 2.827-3.325 6.203-5.103 10.576-5.103 6.782 0 10.863 4.102 10.863 11.854v21.056h-9.129v-18.054c0-4.328-1.896-6.522-5.337-6.522-3.408 0-5.528 2.198-5.528 6.522v18.054h-9.097v-18.054c0-4.328-1.96-6.522-5.368-6.522-3.439 0-5.529 2.198-5.529 6.522v18.054h-9.129V810.04h.001zM240.36 821.46v-.13c0-11.921 8.996-21.664 21.912-21.664 7.937 0 12.661 2.629 16.548 6.473l-5.848 6.761c-3.276-2.916-6.556-4.71-10.764-4.71-7.068 0-12.179 5.863-12.179 13.043v.098c0 7.176 4.981 13.2 12.179 13.2 4.786 0 7.711-1.954 11.055-4.936l5.878 5.964c-4.338 4.584-9.156 7.464-17.222 7.464-12.369.003-21.559-9.512-21.559-21.563M307.7 824.78h-10.688v9.178h11.011c4.089 0 6.534-1.438 6.534-4.541v-.096c.001-2.814-2.059-4.541-6.857-4.541m4.539-12.185c0-2.749-2.155-4.316-6.084-4.316h-9.143v8.825h8.563c4.089 0 6.664-1.31 6.664-4.411v-.098zm-24.242-12.373h19.544c4.828 0 8.596 1.31 11.009 3.677 1.932 1.951 2.866 4.25 2.866 7.129v.128c0 4.704-2.511 7.324-5.506 8.986 4.86 1.888 7.886 4.702 7.886 10.298v.129c0 7.61-6.278 11.446-15.772 11.446H288v-41.793h-.003zM329.92 836.31l5.456-6.539c3.789 3.109 7.735 5.097 12.514 5.097 3.789 0 6.099-1.476 6.099-3.943v-.13c0-2.34-1.44-3.527-8.471-5.319-8.473-2.182-13.929-4.487-13.929-12.824v-.13c0-7.597 6.128-12.629 14.697-12.629 6.131 0 11.364 1.923 15.597 5.321l-4.811 6.957c-3.723-2.6-7.352-4.137-10.913-4.137-3.5 0-5.391 1.603-5.391 3.654v.13c0 2.756 1.799 3.654 9.082 5.513 8.504 2.211 13.317 5.257 13.317 12.567v.096c0 8.336-6.385 13.015-15.438 13.015-6.319-.001-12.772-2.212-17.809-6.699M390.33 821.4v-.13c0-11.91 9.03-21.646 21.912-21.646 7.94 0 12.658 2.627 16.551 6.468l-5.849 6.756c-3.278-2.915-6.556-4.707-10.767-4.707-7.067 0-12.178 5.858-12.178 13.031v.098c0 7.17 4.98 13.191 12.178 13.191 4.786 0 7.745-1.953 11.056-4.933l5.878 5.958c-4.338 4.58-9.124 7.459-17.223 7.459-12.369.004-21.558-9.504-21.558-21.545M460.7 826.34v-.125c0-4.689-3.438-8.801-8.516-8.801-5.172 0-8.32 4.015-8.32 8.703v.098c0 4.718 3.438 8.833 8.482 8.833 5.208-.003 8.354-3.99 8.354-8.708m-25.835 0v-.125c0-9.185 7.423-16.614 17.481-16.614 9.961 0 17.319 7.336 17.319 16.517v.098c0 9.181-7.423 16.61-17.481 16.61-9.96-.001-17.319-7.302-17.319-16.486M477.8 810.04h9.123v4.587c2.086-2.712 4.85-5.168 9.509-5.168 4.174 0 7.352 1.842 9.025 5.103 2.822-3.325 6.198-5.103 10.563-5.103 6.782 0 10.858 4.102 10.858 11.854v21.056h-9.123v-18.054c0-4.328-1.897-6.522-5.33-6.522-3.406 0-5.524 2.198-5.524 6.522v18.054h-9.092v-18.054c0-4.328-1.959-6.522-5.364-6.522-3.437 0-5.522 2.198-5.522 6.522v18.054H477.8V810.04zM560.96 826.19v-.13c0-5.324-3.595-8.888-7.864-8.888s-7.769 3.563-7.769 8.888v.13c0 5.324 3.499 8.852 7.769 8.852s7.864-3.463 7.864-8.852m-24.652-16.139h9.116v4.588c2.215-2.981 5.295-5.165 10.017-5.165 7.51 0 14.635 5.873 14.635 16.587v.13c0 10.71-7 16.583-14.635 16.583-4.852 0-7.867-2.213-10.017-4.813v13.794h-9.116v-41.704zM597.37 831v-1.608c-1.584-.739-3.65-1.225-5.846-1.225-3.938 0-6.36 1.576-6.36 4.447v.126c0 2.482 2.066 3.929 5.038 3.929 4.262 0 7.168-2.35 7.168-5.669m-21.053 2.127v-.13c0-7.053 5.358-10.304 13.013-10.304 3.291 0 5.616.548 7.908 1.352v-.546c0-3.802-2.357-5.927-6.941-5.927-3.483 0-5.94.676-8.941 1.77l-2.262-6.955c3.552-1.612 7.04-2.609 12.528-2.609 5.003 0 8.617 1.319 10.945 3.606 2.392 2.418 3.456 5.958 3.456 10.307v18.683h-8.847v-3.479c-2.23 2.482-5.296 4.092-9.749 4.092-6.14-.005-11.11-3.517-11.11-9.86M615.29 810.06h9.095v4.568c2.12-2.7 4.819-5.146 9.447-5.146 6.912 0 10.93 4.534 10.93 11.932v20.842h-9.095v-17.979c0-4.31-2.059-6.495-5.527-6.495-3.505 0-5.755 2.188-5.755 6.495v17.979h-9.095V810.06zM674.42 809.95h9.405l-12.271 32.965c-2.424 6.551-5.068 8.994-10.489 8.994-3.249 0-5.706-.835-8.034-2.216l3.03-6.619c1.211.738 2.678 1.255 3.89 1.255 1.53 0 2.389-.452 3.124-2.058l-12.497-32.321h9.596l7.268 21.911 6.978-21.911zM-108.44 440.44c0 62.439 16.549 132.75 46.173 190.62 53.475-49.793 194.01-208.21 210-226.59 24.497-28.153 35.096-10.232 48.185-25.872 7.203-8.671 11.212-11.985 14.282-13.75 5.076-2.991 10.943-10.034 13.75-12.247 2.797-2.155 9.344-10.751 14.205-15.06 5.149-4.431 15.211-10.686 25.221-19.418 10.292-8.599 27.231-28.865 46.135-28.865 22.295 0 31.48 15.187 33.492 16.879 1.729 1.887 15.287 13.877 17.473 16.291 2.475 2.675 17.172 14.205 25.218 14.205 7.951 0 13.555 8.733 17.884 13.099 9.359 8.54 48.396 49.463 61.131 58.198 5.737 3.777 11.207 3.254 15.416 6.384 4.396 3.127 6.418 5.407 8.9 6.13 2.6.713 10.842-1.301 20.516 10.686 4.627 3.055 5.84 3.645 5.84 3.645s13.189 11.994 17.854 20.533c4.305 7.361 103.06 138.22 138.22 185.21 32.91-59.57 51.58-127.67 51.58-200.27 0-229.64-186.19-415.7-415.74-415.7-229.68.126-415.74 186.24-415.74 415.89m317.76-228.99c-6.844 15.114-11.662 26.262-18.079 40.665-.455 1.43-.91 3.779.292 4.687 1.106.527 2.505.527 3.252 0 8.146-3.906 15.023-13.163 20.756-23.783l9.679-21.825H239.1l-3.813 8.145c-.258.518-.258.776 0 .518 4.464-3.127 9.09-8.209 14.563-11.212 2.18-1.167 7.333-1.167 6.878 2.55-.36 3.19-2.807 5.666-4.206 8.662-.689 2.023-1.633 4.43-1.269 5.802.58 1.36 2.117 2.146 4.334.453 2.185-1.301 3.645-2.404 5.729-3.975 3.457-3.386 7.787-6.452 12.807-9.054 9.813-4.76 23.232-7.825 33.045-1.435-6.877 15.374-11.834 26.717-18.573 41.252-1.039 2.407-.331 3.254.68 3.906.757.525 2.352.846 4.661-.392 5.283-2.21 14.951-12.968 18.707-21.174 3.52-7.691 6.866-15.381 10.746-24.045h14.336l-4.068 8.34s.332.322.455.322c3.877-3.458 13.885-11.533 21.219-9.777 4.234.783 6.024 5.677 5.764 9.26 4.657-3.326 9.447-7.496 16.319-9.064 9.813-2.406 13.692 4.368 10.819 11.013-4.07 8.934-11.6 26.916-15.934 35.908-.617.913-.617 2.934 0 3.458 1.139.714 2.931 0 3.85-.526 4.885-4.231 7.754-6.968 11.432-12.375 1.043-9.521 6.256-18.314 13.396-25.616 7.619-8.537 19.611-15.05 31.188-11.273 4.195 1.365 6.805 5.536 8.008 9.451.396 2.28.98 3.394.98 5.798 5.862 4.433 13.813-2.797 17.176-8.082.909-2.275 1.854-4.75 2.64-6.382 3.419.196 10.096 0 14.165 0l-17.752 40.793c-1.271 2.476-1.534 3.714-1.534 5.668 0 1.372 1.662 1.693 3.391 1.372 4.896-.652 12.808-10.427 16.82-18.635 4.685-9.912 9.091-18.449 13.42-28.616h14.697c-5.827 13.628-12.356 28.092-17.173 38.846-.91 2.088-2.314 4.234-1.596 7.229.686 1.497 2.537 1.176 3.619.721 6.252-3.716 17.004-15.58 20.754-22.938 3.842-8.873 6.873-15.324 10.844-23.858h14.83l-3.619 8.534c5.475-4.363 11.57-9.114 18.774-10.158 3.261-.526 7.259-.331 9.224 2.996 2.178 3.778.844 7.885-.883 11.47-4.207 9.32-8.734 19.354-12.936 28.474-.621 2.218-1.014 4.304.646 5.283 2.213 1.301 12.68-5.02 17.755-16.49 4.603-10.096 7.669-16.228 11.743-25.94h-7.667l2.184-4.553h7.63l11.077-23.664h14.794l-10.723 23.664h11.016l-2.021 4.553h-10.887c-6.316 13.297-11.532 24.447-17.207 37.145-1.916 4.303-4.139 11.48-3.057 15.843.78 2.407 3.938 2.996 6.553 2.148 8.401-2.933 14.205-10.167 19.125-17.726.194-.915 4.625-.268 4.389.394-5.79 11.405-18.207 22.802-30.391 22.61-3.621 0-7.496-2.219-9.488-5.278-1.264-1.568-1.652-2.931-2.145-4.823-.91-3.065-.646-6.585 0-9.909-6.75 5.017-12.808 10.951-21.089 12.582-3.606.583-8.267-.785-9.052-4.696-.427-2.869-.292-6.389.782-8.93 5.339-11.338 9.804-21.372 14.759-33.17.26-.455 0-2.479-.549-2.737-.787-.711-3.264-.711-5.476.907-9.943 7.567-15.282 17.466-19.612 27.575-3.004 6.774-6.331 13.549-9.674 20.268H494.95c1.662-4.174 4.143-9.583 6.059-14.009 0-.196-.314-.196-.314 0-5.94 6.059-13.693 12.771-21.348 14.794-2.936.776-5.898-.196-7.438-3.067-1.719-2.675-2.18-6.844-.844-10.426 0-.134-.195-.134-.42 0-5.445 5.472-10.589 10.426-17.854 12.967-8.348 2.478-15.772-3.252-10.493-15.319 1.336-3.316 5.411-12.315 9.938-23.323-3.717 1.63-8.406 1.63-10.82.908-.258 0-.258 0-.258.134-3.262 15.44-12.279 29.392-26.298 35.908-6.739 3.386-14.464 4.169-21.212-.456-3.386-2.284-5.34-7.495-5.412-12.121-7.197 7.227-15.21 16.156-26.092 14.597-1.668-.33-2.932-1.827-3.852-3.323-2.476-4.047-1.006-8.54.589-12.06 5.153-11.015 9.546-21.111 14.829-33.499.774-1.564-1.701-2.934-3.223-2.091-4.732 2.543-8.344 5.091-11.275 10.111-1.926 2.21-3.396 4.365-4.344 7.102-4.66 11.016-9.998 21.372-14.324 31.933h-14.83c6.551-14.928 12.864-29.26 19.479-44.317.627-1.169.269-3.192-.45-3.707-1.404-.589-3.619.515-5.277 1.422-3.459 2.285-6.609 5.68-8.929 9.78-2.604 4.106-4.822 8.216-6.551 12.646l-11.077 24.176h-14.465c1.393-3.197 4.195-9.516 5.799-12.769 0-.198-.364-.395-.364-.198-7.916 6.382-18.084 14.99-25.349 13.556-2.539-.196-4.526-2.343-5.345-4.561-.321-2.738-.124-5.285.488-7.627 0-.457-.488-.457-.612 0-6.457 6.059-11.998 10.951-19.948 12.843-4.463 1.041-8.73-1.892-10.263-5.213-2.016-3.911-2.543-9.848.718-16.687 1.916-4.362 4.071-8.992 6.748-12.967-1.537.912-4.832 1.168-7.006.912-1.863-.261-3.947-1.63-4.895-2.996-1.04-1.434-1.336-3.851-1.336-5.543.297-.256-.651-.256-1.102 0-4.564 3.583-6.417 7.627-8.64 12.253l-12.544 28.475h-14.798l5.608-11.925c.134-.319 0-.518-.321-.319-7.629 6.772-17.041 14.598-24.373 13.162-2.15-.393-4.272-2.61-4.957-4.562-.455-2.541-.125-5.349 0-7.89h-.455c-6.059 6.063-11.859 11.018-19.615 12.648-4.596 1.435-8.403-1.24-10.129-5.016-2.347-5.608-1.473-11.149.453-16.49 5.74-14.794 16.23-25.417 30.436-33.365 8.985-5.217 22.797-6.849 32.673-1.635m-105.34-64.842c42.36 1.885 67.447 22.742 67.447 45.228 0 39.943-63.446 46.787-63.446 46.787-11.006 55.263-54.934 76.448-85.366 76.18-40.825-.455-40.173-33.429-38.839-37.797 1.83-4.886 4.466-9.25 9.545-9.25 5.02 0 9.358 4.169 9.358 9.25 0 3.264-1.532 6.195-4.339 7.62-5.338 3.595-4.198 7.504-4.198 7.504 0 17.791 22.61 18.897 28.475 18.897 60.807 0 53.803-100.03 107.5-134.06 2.404-1.496 4.234 0 2.835 1.83-16.846 20.855-23.039 54.747-23.039 54.747 25.908 0 42.848-24.768 42.848-41.71 0-29.392-26.297-41.708-48.774-41.708-62.598 0-89.77 43.793-89.77 67.642 0 23.92 14.957 32.459 25.908 32.459 15.081 0 19.938-10.108 18.084-14.991-3.003-7.826 1.267-14.339 5.862-14.339 1.925 0 8.147-.259 8.147 10.756 0 10.426-15.151 21.114-31.636 21.114-16.362 0-40.247-8.932-40.247-35-.008-52.983 65.131-73.185 103.65-71.161m59.985 111.24c5.474 0 13.132-9.643 17.399-18.313 4.431-9.313 6.748-14.464 12.094-26.255.258-.465-.197-.465-.82-.465-6.193 0-13.065 6.332-17.395 11.47-5.349 6.258-13.692 18.252-15.028 27.048-.943 4.564 1.337 6.515 3.75 6.515m236.23 8.207c6.057 3.139 13.521-10.292 20.266-22.61 6.555-12.313 11.707-27.69 6.232-29.514-6.232-2.479-14.143 9.382-20.695 21.822-6.612 12.452-11.531 27.639-5.803 30.302m-138.22-8.207c5.47 0 12.965-9.643 17.361-18.313 4.268-9.313 6.451-14.464 12.093-26.255.196-.465-.364-.465-.881-.465-6.159 0-13.166 6.332-17.495 11.47-5.115 6.258-13.822 18.252-14.99 27.048-.887 4.564 1.105 6.515 3.912 6.515m-55.79 197.47c1.398-2.996 5.934-12.256 5.608-16.1 0-.719-1.595-1.885-2.936-.46-6.389 6.327-19.674 29.136-24.631 31.804-11.212 5.412-16.193 18.639-19.32 23.854-2.476 3.715-5.642 10.032-10.954 17.793-4.626 6.836-10.099 17.068-12.085 20.587-1.864 3.524-2.735 6.905.946 6.905 3.714 0 .711 5.803-3.684 12.451-2.416 3.851-8.671 21.957-10.558 26.977-2.318 6.197-1.855 13.947-2.871 16.492-.846 2.473-12.673 27.759-15.666 33.367-2.06 3.652-1.535 5.018-2.121 6.973-1.142 2.541.062 3.059 2.121 1.229 2.208-2.147 14.82-21.367 18.669-23.648 3.939-2.477 7.363-6.063 8.015-14.401.491-8.21 5.864-10.43 10.069-15.445 4.071-4.761 9.545-11.335 12.639-18.115 2.644-6.651 6.389-1.623 12.807-11.99 6.389-10.426 21.021-36.296 24.272-41.376 3.3-4.896.948-12.257.488-18.059-.157-3.189.202-10.943 2.189-19.283 1.787-7.246 5.149-14.798 7.003-19.555m397.99 141.54c.941-1.167-1.596-4.228-3.129-6.906-1.401-2.414-10.393-12.313-11.924-14.988-1.633-2.738-13.162-19.09-17.236-24.572-7.271-9.445-.589-12.77-4.537-18.438-1.521-2.609-10.742-13.75-21.627-24.764-5.385-5.535-11.549-10.947-16.949-15.703-8.607-7.629-15.155-13.422-16.002-12.185-1.398 1.438 3.521 7.427 5.67 10.096 2.186 2.737 5.48 7.558 10.01 12.968 7.457 8.867.586 15.252 7.688 22.291.972 1.107 20.392 22.742 25.026 26.79 7.199 6.257 32.291 36.029 34.139 37.66 2.736 2.673 7.888 8.858 8.871 7.751m-114.7-42.748c7.069 11.471 8.869 9.259 11.667 9.453 6.609.197 21.245 15.826 24.237 20.133 2.736 4.365 26.299 27.895 32.487 33.5 2.677 2.537 21.149 32.779 23.624 30.561 2.54-2.021-7.145-16.686-8.664-19.938-1.273-3.197-6.684-8.085-9.352-14.729-2.545-6.844-13.56-23.723-17.143-29.063-3.543-5.467-9.344-17.271-15.674-24.958-5.963-6.713-1.137-8.545-7.362-14.344-3.581-3.315-15.148-13.614-17.591-15.896-2.48-1.951-11.829-10.229-17.308-14.857-5.114-4.693-17.951-13.492-17.53-19.096.191-5.729-2.604-16.811-6.738-20.588-3.166-2.479-12.355-17.344-22.84-25.747-5.248-4.489-16.397-16.097-25.024-26.265-8.28-9.451-14.405-18.503-16.202-17.203-2.605 1.827 9.449 18.77 10.719 20.661 1.275 2.087 15.287 26.459 16.681 32.841 1.534 6.392 27.506 50.576 33.368 64.33 3.3 7.942 20.952 18.693 28.645 31.205m-160.15-123.11c2.309 6.652 10.746 46.727 13.198 54.877 2.54 8.275 5.144 8.73 6.553 11.856 4.945 12.585 12.019 12.968 15.728 14.011 10.301 3.006 11.015 16.887 17.764 29.137 5.934 11.596 11.896 21.959 17.131 34.469 5.475 12.577 33.051 80.684 37.738 91.036 1.726 3.72 14.791 3.72 13.319 0-3.314-7.422-10.88-26.327-15.469-45.026-3.128-12.309 8.339-3.711 1.067-23.003-3.289-9.185-9.668-17.987-13.229-21.505-3.715-3.719-7.197-19.025-10.195-25.997-2.805-6.722-1.336-7.102-7.467-23.335-4.492-11.801 8.242-7.752.983-26.266-4.589-11.859-28.22-54.931-30.892-59.042-1.398-2.604-5.924-9.913-11.533-18.829-5.283-8.343-9.68-17.408-12.155-21.186-4.957-7.813-14.079-25.222-19.022-32.38-5.121-7.24-11.408-23.005-14.014-20.343-2.477 2.354 7.688 26.076 11.886 41.19 4.335 15.118 1.084 21.176-1.397 25.616-2.668 4.171-2.668 6.968.006 14.72m-3.287-431.6l21.23-12.637 18.221 16.417-5.277-24.044 21.148-12.905-24.604-2.479-4.885-23.65-9.813 22.228-24.498-2.357 18.568 16.683-10.09 22.744zm389.17 278.79l20.047 14.337-7.566 23.264 20.045-14.921 20.396 14.404-7.785-23.527 19.548-14.208-24.311.323-7.59-23.458-7.816 23.788-24.968-.002zm59.867 64.255l-12.133 21.825-24.438-4.82 16.881 17.794-11.864 21.497 22.362-10.683 17.455 17.797-3.125-24.512 22.031-10.094-23.885-4.566-3.284-24.238zm-664.3 149.82c-2.021-1.631-25.184 22.228-40.469 38.776-5.445 5.73-8.929 11.203-10.852 13.75 0 0-6.935 11.211-10.492 15.9-3.583 4.625-12.61 17.854-16.549 23.453-1.408 2.09-4.919 10.43-11.995 19.16-3.422 4.309-6.81 9.911-13.494 18.57-9.018 11.669-16.094 21.248-14.332 22.354.908.725 14.145-15.246 28.278-32.582 5.934-7.104 12.485-14.658 17.761-21.699 2.738-3.389 8.733-9.053 10.786-12.061 3.482-5.018 7.359-8.928 8.894-10.16 7.948-6.449 12.352-7.036 14.732-10.622 1.497-1.827 16.904-25.548 22.646-35.256 5.541-8.993 18.278-26.849 15.086-29.583m608.24 154.71l4.588 24.436 10.82-22.223 24.014 3.457-17.466-16.564 10.524-22.154-21.994 11.531-18.019-17.394 4.591 24.176-21.693 11.535 24.635 3.2zm47.77-83.289l24.377-1.24-20.436-13.027 6.287-23.922-19.481 15.775-20.886-13.689 8.988 22.941-19.285 15.514 25.028-1.503 9.21 23.003 6.198-23.852zm16.545-105.24l1.768-24.508-16.23 19.096-23.098-9.322 13.094 20.533-15.705 18.967 24.178-6.258 13.318 20.917 1.773-24.705 23.552-5.865-22.65-8.855zM409.72 11.582l23.211-8.412 14.621 19.689L447-1.971l23.43-8.537-23.688-7.177-.455-24.105-13.688 19.812-23.49-7.041 14.889 20.07-14.278 20.531zm289.62 201.76l-3.129 24.44 17.07-18.246 22.552 9.903-12.228-21.444 16.754-17.397-23.688 4.5-12.117-21.442-3.165 24.891-24.474 4.698 22.425 10.097zM513.41 35.692l10.818 22.031 4.008-24.436 24.637-3.915-21.839-11.603 4.272-23.91-17.361 17.198L496.211-.41l10.686 22.545-17.765 17.271 24.278-3.714zm111.8 101.34l23.883 5.606 1.596 24.438 13.004-21.186 24.299 5.542-15.898-18.767 12.773-20.463-22.449 9.188-15.861-18.767 1.518 24.962-22.865 9.447zm-38.78-54.351l6.321 23.851 8.831-23.269 24.67.722-19.123-15.506 8.725-22.486-20.292 13.485-19.132-15.506 6.254 24.309-20.88 13.35 24.626 1.05zm-712.97 150.6l22.938-10.033 16.612 18.446-2.931-24.313 22.646-10.036-24.437-5.017-3.127-24.698-12.218 21.506-23.69-5.213 16.355 17.921-12.148 21.437zm-27.7 334.77l6.061 23.724 9.483-23.076 24.962 1.703-19.036-15.452 9.165-22.739-21.018 13.23-19.292-15.58 6.061 23.926-20.527 12.765 24.141 1.499zM159.6 24.101l14.793-19.427 23.238 8.34-14.208-20.587 14.957-19.749-23.491 6.846-13.559-20.141-.881 24.25-23.494 6.834L160.387-.8l-.787 24.901zm-80.153 11.14l3.948 24.507 10.884-22.033 24.143 3.85-17.764-17.466 10.891-22.422-21.896 11.407L72.641-4.05l3.937 23.845-21.895 11.409 24.764 4.037zM6.726 85.938l8.602 23.465 6.316-23.855 24.634-.716-20.756-13.884 6.489-24.045-19.356 15.249-20.072-13.494L.988 71.403-18.37 86.525l25.096-.587zm-117.21 589.58l5.017-24.501 24.634-2.808-21.704-11.789 4.696-24.178-17.888 17.075-22.091-11.669 10.525 22.414-17.728 16.43 23.947-2.996 10.592 22.022zm352.04-671.87l18.405-16.363 21.15 12.84-9.938-22.938 18.349-16.746-24.407 2.282-9.354-22.296-5.47 23.602-24.506 2.406 21.379 12.903-5.608 24.31zm-296.58 145.64l12.842 21.248 1.854-24.508 23.946-5.41-22.869-9.581 1.598-24.768-16.169 18.709-22.021-9.449 12.416 20.596-15.874 18.571 24.277-5.408zm-102.96 170.02l20.561-14.081 19.938 14.794-7.59-23.261 20.301-14.081-25.026-.259-7.623-23.59-8.145 23.332-23.884-.455 19.222 14.404-7.754 23.197zm-14.536 91.109l17.689-18.12 22.292 10.943-11.898-21.566 17.146-17.531-24.474 4.366-11.958-21.698-3.458 24.437-23.81 4.11 21.798 10.685-3.327 24.374zm3.326 91.751l13.815-20.849 24.016 6.582-15.676-19.029 13.36-20.463-23.039 8.919-16.061-19.025 1.169 24.694-22.414 8.676 23.43 6.053 1.4 24.442z"/></svg>